<?xml version="1.0" encoding="utf-8"?>
<!-- Generator: Adobe Illustrator 23.0.0, SVG Export Plug-In . SVG Version: 6.00 Build 0)  -->
<svg version="1.1" id="svelte" xmlns="http://www.w3.org/2000/svg" xmlns:xlink="http://www.w3.org/1999/xlink" x="0px" y="0px"
	 viewBox="0 0 470 139" style="enable-background:new 0 0 470 139;" xml:space="preserve">
<style type="text/css">
	.st0{fill:#4A4A55;}
	.st1{fill:#FF3E00;}
	.st2{fill:#FFFFFF;}
</style>
<g>
	<path id="logotype" class="st0" d="M155.3,100.4c-4.9,0.1-9.6-1.2-13.7-3.9c-3.8-2.5-6.6-6.3-8-10.6l8.3-3.1c1.2,2.7,3,5,5.4,6.6
		c2.4,1.6,5.3,2.5,8.3,2.4c2.8,0.1,5.6-0.7,7.9-2.4c2-1.7,3.1-4.2,2.9-6.8c0-1.2-0.3-2.4-0.8-3.4c-0.5-1-1.1-1.8-1.8-2.6
		c-0.9-0.9-2-1.6-3.2-2.1c-1.4-0.7-2.6-1.3-3.5-1.6s-2.3-0.9-4.1-1.5c-2.3-0.8-4-1.4-5.1-1.9c-1.5-0.7-3-1.4-4.5-2.3
		c-1.6-0.8-3-1.9-4.2-3.2c-1-1.2-1.9-2.6-2.5-4.2c-2.4-5.9-0.8-12.6,4-16.8c3.4-3,8-4.5,13.9-4.5c4.9,0,8.9,1.1,12.1,3.2
		c3.1,2,5.3,5.1,6.4,8.6l-8.2,2.7c-0.8-1.9-2.2-3.4-4-4.4c-2.1-1.2-4.5-1.7-6.9-1.6c-2.4-0.1-4.7,0.5-6.7,1.9
		c-1.6,1.3-2.5,3.2-2.4,5.3c0,1.6,0.7,3.1,1.9,4.1c1.1,1.1,2.5,2,3.9,2.6c1.4,0.6,3.4,1.3,6.2,2.3c1.7,0.6,3,1.1,3.8,1.4
		s2,0.8,3.6,1.6c1.3,0.6,2.5,1.2,3.7,2c1,0.8,2,1.6,3,2.4c1,0.9,1.9,1.9,2.6,3.1c0.7,1.2,1.2,2.5,1.5,3.8c0.4,1.6,0.7,3.2,0.6,4.8
		c0,5.6-1.9,9.9-5.7,13.1S161.3,100.4,155.3,100.4z M209.9,99.4l-20.4-59.7h9.5l13.6,41.6c0.7,2.2,1.4,4.5,1.9,6.8
		c0.5-2.3,1.1-4.6,1.9-6.8l13.4-41.6h9.5l-20.4,59.6L209.9,99.4z M257.2,99.4V39.7h37v8.4h-28.1v16.4h18.1v8.4h-18.1V91h30v8.3
		L257.2,99.4z M318.6,99.4V39.7h8.9v51.1h29.1v8.5L318.6,99.4z M390.1,48.3v51.1h-8.9V48.3h-16.9v-8.5h42.6v8.5L390.1,48.3z
		 M425.3,99.4V39.7h37v8.4h-28.1v16.4h18.1v8.4h-18.1V91h30v8.3L425.3,99.4z"/>
	<path id="back" class="st1" d="M93.1,28.4C82.7,13.5,62.2,9.1,47.3,18.6L21.3,35.2c-7.1,4.5-12,11.7-13.5,20
		c-1.2,6.9-0.2,14,3.1,20.2c-2.2,3.4-3.8,7.2-4.5,11.2c-1.5,8.4,0.5,17.1,5.5,24.1c10.4,14.9,30.9,19.3,45.8,9.8L83.7,104
		c7.1-4.5,12-11.7,13.5-20c1.2-6.9,0.1-14-3.1-20.2c2.2-3.4,3.8-7.2,4.5-11.2C100.1,44.1,98.1,35.5,93.1,28.4"/>
	<path id="front" class="st2" d="M44.8,112.2c-8.4,2.2-17.3-1.1-22.2-8.3c-3-4.2-4.2-9.4-3.3-14.5c0.1-0.8,0.4-1.6,0.6-2.4l0.5-1.5
		l1.3,1c3.1,2.2,6.5,4,10.2,5.1l1,0.3l-0.1,1c-0.1,1.4,0.3,2.7,1.1,3.8c1.5,2.1,4.2,3.1,6.7,2.5c0.6-0.2,1.1-0.4,1.6-0.7l26-16.6
		c1.3-0.8,2.2-2.1,2.4-3.6c0.3-1.5-0.1-3.1-1-4.4c-1.5-2.1-4.2-3.1-6.7-2.5c-0.6,0.2-1.1,0.4-1.6,0.7l-10,6.3
		c-1.6,1-3.4,1.8-5.3,2.3c-8.4,2.2-17.3-1.1-22.2-8.2c-3-4.2-4.2-9.4-3.3-14.5c0.9-5,3.8-9.4,8.1-12.1l26.1-16.6
		c1.6-1,3.4-1.8,5.3-2.3c8.4-2.2,17.3,1.1,22.2,8.3c3,4.2,4.2,9.4,3.3,14.5c-0.2,0.8-0.4,1.6-0.6,2.4l-0.5,1.5l-1.3-1
		c-3.1-2.3-6.5-4-10.2-5.1l-1-0.3l0.1-1c0.1-1.4-0.3-2.8-1.1-3.9c-1.5-2.1-4.2-3.1-6.7-2.4c-0.6,0.2-1.1,0.4-1.6,0.7L36.7,57.3
		c-1.3,0.8-2.2,2.1-2.5,3.6c-0.3,1.5,0.1,3.1,1,4.4c1.5,2.1,4.1,3.1,6.7,2.5c0.6-0.2,1.1-0.4,1.6-0.7l10-6.3c1.6-1,3.4-1.8,5.3-2.3
		c8.4-2.2,17.3,1.1,22.2,8.2c3,4.2,4.2,9.4,3.3,14.5c-0.9,5-3.8,9.4-8.1,12.1l-26.1,16.6C48.5,110.9,46.7,111.7,44.8,112.2"/>
</g>
</svg>
